<svg width="175" height="54" viewBox="0 0 175 54" fill="none" xmlns="http://www.w3.org/2000/svg">
<path d="M27.1 52.4C40.9623 52.4 52.2 41.1176 52.2 27.2C52.2 13.2824 40.9623 2 27.1 2C13.2377 2 2 13.2824 2 27.2C2 41.1176 13.2377 52.4 27.1 52.4Z" stroke="#253626" stroke-width="2.51"/>
<path d="M27.1 10.4C18.7333 23 35.4667 31.4 27.1 44C39.65 35.6 43.8333 23 35.4667 14.6C32.9567 12.08 29.61 10.4 27.1 10.4Z" fill="#253626"/>
<path d="M62.9492 37.36V15.7995H78.5386V18.3438H65.8024V24.9473H77.7298V27.4769H65.8024V34.8157H79.0387V37.36H62.9492ZM92.8339 31.639L95.437 31.9772C95.1527 33.7715 94.4222 35.1785 93.2457 36.1981C92.0789 37.208 90.6425 37.713 88.9365 37.713C86.7991 37.713 85.0784 37.0168 83.7743 35.6246C82.4801 34.2225 81.833 32.2174 81.833 29.6094C81.833 27.923 82.1125 26.4474 82.6713 25.1826C83.2302 23.9178 84.0783 22.9716 85.2156 22.3441C86.3628 21.7068 87.608 21.3882 88.9512 21.3882C90.6474 21.3882 92.0348 21.8196 93.1133 22.6824C94.1918 23.5354 94.8831 24.7512 95.187 26.3297L92.6133 26.7268C92.3682 25.6777 91.9318 24.8884 91.3043 24.359C90.6867 23.8295 89.9366 23.5648 89.0542 23.5648C87.7207 23.5648 86.6373 24.0452 85.8039 25.0061C84.9705 25.9571 84.5538 27.4671 84.5538 29.5359C84.5538 31.6341 84.9558 33.1587 85.7598 34.1097C86.5638 35.0608 87.6129 35.5363 88.9071 35.5363C89.9464 35.5363 90.8141 35.2177 91.5102 34.5804C92.2064 33.9431 92.6476 32.9626 92.8339 31.639ZM96.7165 29.5506C96.7165 26.6582 97.5205 24.5159 99.1285 23.1236C100.472 21.9666 102.109 21.3882 104.041 21.3882C106.188 21.3882 107.943 22.0941 109.306 23.506C110.669 24.908 111.35 26.8494 111.35 29.33C111.35 31.3399 111.046 32.9234 110.438 34.0803C109.84 35.2275 108.963 36.1197 107.806 36.757C106.658 37.3943 105.403 37.713 104.041 37.713C101.854 37.713 100.084 37.0119 98.7314 35.6099C97.3882 34.2078 96.7165 32.188 96.7165 29.5506ZM99.4373 29.5506C99.4373 31.5507 99.8736 33.0508 100.746 34.0509C101.619 35.0412 102.717 35.5363 104.041 35.5363C105.354 35.5363 106.448 35.0363 107.32 34.0362C108.193 33.0361 108.629 31.5115 108.629 29.4623C108.629 27.5308 108.188 26.0699 107.306 25.0796C106.433 24.0795 105.345 23.5795 104.041 23.5795C102.717 23.5795 101.619 24.0746 100.746 25.0649C99.8736 26.0552 99.4373 27.5504 99.4373 29.5506ZM114.806 37.36V15.7995H122.939C124.371 15.7995 125.464 15.8681 126.219 16.0054C127.278 16.1819 128.165 16.5201 128.881 17.0202C129.597 17.5104 130.17 18.2016 130.602 19.0939C131.043 19.9861 131.263 20.9666 131.263 22.0353C131.263 23.8687 130.68 25.4228 129.513 26.6974C128.346 27.9622 126.238 28.5946 123.189 28.5946H117.659V37.36H114.806ZM117.659 26.0503H123.233C125.077 26.0503 126.386 25.7071 127.16 25.0208C127.935 24.3345 128.322 23.3687 128.322 22.1235C128.322 21.2215 128.092 20.4518 127.631 19.8145C127.18 19.1674 126.582 18.7409 125.836 18.535C125.356 18.4075 124.469 18.3438 123.174 18.3438H117.659V26.0503ZM134.528 37.36V21.7411H136.911V24.109C137.519 23.001 138.078 22.2706 138.587 21.9176C139.107 21.5646 139.676 21.3882 140.293 21.3882C141.186 21.3882 142.093 21.6725 143.014 22.2412L142.102 24.6972C141.455 24.3149 140.808 24.1237 140.161 24.1237C139.583 24.1237 139.063 24.3002 138.602 24.6531C138.141 24.9963 137.813 25.4767 137.617 26.0944C137.323 27.0357 137.176 28.0652 137.176 29.1829V37.36H134.528ZM144.603 18.8438V15.7995H147.25V18.8438H144.603ZM144.603 37.36V21.7411H147.25V37.36H144.603ZM151.294 37.36V21.7411H153.677V23.9619C154.824 22.2461 156.481 21.3882 158.648 21.3882C159.589 21.3882 160.452 21.5597 161.236 21.9029C162.03 22.2363 162.624 22.6775 163.016 23.2265C163.408 23.7756 163.683 24.4276 163.839 25.1826C163.937 25.6728 163.987 26.5307 163.987 27.7563V37.36H161.339V27.8593C161.339 26.7807 161.236 25.9768 161.03 25.4473C160.824 24.908 160.457 24.4815 159.927 24.1678C159.408 23.8442 158.795 23.6825 158.089 23.6825C156.961 23.6825 155.986 24.0403 155.162 24.7561C154.348 25.4718 153.942 26.8298 153.942 28.8299V37.36H151.294ZM173.84 34.9922L174.223 37.3306C173.477 37.4875 172.811 37.5659 172.222 37.5659C171.262 37.5659 170.516 37.4139 169.987 37.11C169.458 36.806 169.085 36.4089 168.869 35.9187C168.654 35.4187 168.546 34.3745 168.546 32.7861V23.8001H166.604V21.7411H168.546V17.8732L171.178 16.2848V21.7411H173.84V23.8001H171.178V32.9332C171.178 33.6881 171.222 34.1735 171.311 34.3892C171.409 34.6049 171.561 34.7765 171.767 34.9039C171.982 35.0314 172.286 35.0951 172.678 35.0951C172.972 35.0951 173.36 35.0608 173.84 34.9922Z" fill="#253626"/>
</svg>
